<mxfile host="65bd71144e">
    <diagram id="IF3X2oZulCslKQjpMtmI" name="Page-1">
        <mxGraphModel dx="1067" dy="730" grid="1" gridSize="10" guides="1" tooltips="1" connect="1" arrows="1" fold="1" page="1" pageScale="1" pageWidth="827" pageHeight="583" math="0" shadow="0">
            <root>
                <mxCell id="0"/>
                <mxCell id="1" parent="0"/>
                <mxCell id="52" value="" style="group" parent="1" vertex="1" connectable="0">
                    <mxGeometry width="520" height="300" as="geometry"/>
                </mxCell>
                <mxCell id="34" value="&lt;h1 style=&quot;margin-bottom: 0px; margin-top: 255px; margin-right: 0px;&quot;&gt;CP-2007&lt;/h1&gt;" style="rounded=1;whiteSpace=wrap;html=1;fillColor=#dae8fc;strokeColor=#6c8ebf;arcSize=8;" parent="52" vertex="1">
                    <mxGeometry width="520" height="300" as="geometry"/>
                </mxCell>
                <mxCell id="39" value="" style="edgeStyle=none;html=1;strokeWidth=4;startArrow=classic;startFill=1;entryX=1;entryY=0.5;entryDx=0;entryDy=0;exitX=0;exitY=0.5;exitDx=0;exitDy=0;" parent="52" source="35" target="38" edge="1">
                    <mxGeometry relative="1" as="geometry"/>
                </mxCell>
                <mxCell id="42" value="" style="edgeStyle=none;html=1;strokeWidth=4;startArrow=classic;startFill=1;exitX=0.5;exitY=1;exitDx=0;exitDy=0;entryX=0.5;entryY=0;entryDx=0;entryDy=0;" parent="52" source="36" target="35" edge="1">
                    <mxGeometry relative="1" as="geometry"/>
                </mxCell>
                <mxCell id="43" value="" style="edgeStyle=none;html=1;startArrow=classic;startFill=1;strokeWidth=4;exitX=0;exitY=0.5;exitDx=0;exitDy=0;entryX=1;entryY=0.5;entryDx=0;entryDy=0;" parent="52" source="36" target="37" edge="1">
                    <mxGeometry relative="1" as="geometry">
                        <mxPoint x="210" y="63" as="targetPoint"/>
                    </mxGeometry>
                </mxCell>
                <mxCell id="36" value="&lt;h1&gt;Komunikace KNX/IP&lt;/h1&gt;" style="rounded=1;whiteSpace=wrap;html=1;fillColor=#d5e8d4;strokeColor=#82b366;" parent="52" vertex="1">
                    <mxGeometry x="310" y="40" width="170" height="90" as="geometry"/>
                </mxCell>
                <mxCell id="44" value="" style="html=1;entryX=0;entryY=0.344;entryDx=0;entryDy=0;startArrow=classic;startFill=1;strokeWidth=4;endArrow=none;endFill=0;exitX=1;exitY=0.75;exitDx=0;exitDy=0;edgeStyle=orthogonalEdgeStyle;entryPerimeter=0;" parent="52" source="37" target="35" edge="1">
                    <mxGeometry relative="1" as="geometry"/>
                </mxCell>
                <mxCell id="37" value="&lt;h1&gt;Komunikace MQTT&lt;/h1&gt;" style="rounded=1;whiteSpace=wrap;html=1;fillColor=#d5e8d4;strokeColor=#82b366;" parent="52" vertex="1">
                    <mxGeometry x="40" y="40" width="170" height="90" as="geometry"/>
                </mxCell>
                <mxCell id="38" value="&lt;h1&gt;WebMaker&lt;/h1&gt;" style="rounded=1;whiteSpace=wrap;html=1;fillColor=#d5e8d4;strokeColor=#82b366;" parent="52" vertex="1">
                    <mxGeometry x="40" y="170" width="170" height="90" as="geometry"/>
                </mxCell>
                <mxCell id="35" value="&lt;h1&gt;Logiky&lt;/h1&gt;" style="rounded=1;whiteSpace=wrap;html=1;fillColor=#d5e8d4;strokeColor=#82b366;" parent="52" vertex="1">
                    <mxGeometry x="310" y="170" width="170" height="90" as="geometry"/>
                </mxCell>
            </root>
        </mxGraphModel>
    </diagram>
</mxfile>